<?xml version="1.0" encoding="utf-8"?>
<!-- Generator: Adobe Illustrator 21.0.0, SVG Export Plug-In . SVG Version: 6.00 Build 0)  -->
<svg version="1.1" id="Calque_1" xmlns="http://www.w3.org/2000/svg" xmlns:xlink="http://www.w3.org/1999/xlink" x="0px" y="0px"
	 viewBox="0 0 243 213.6" style="enable-background:new 0 0 243 213.6;" xml:space="preserve">
<style type="text/css">
	.st0{fill:#FFFFFF;}
</style>
<path class="st0" d="M165,0H0v165h165l78,48.6L165,0z M115.9,42.1c0,1.4-1.1,2.5-2.5,2.5l-10.8,0c-7.5,0-8.8,2.9-8.8,8.6v11.9h18.9
	c0.7,0,1.3,0.3,1.8,0.7c0.5,0.5,0.7,1.1,0.7,1.8l0,20.3c0,1.4-1.1,2.5-2.5,2.5H93.8v51.3c0,1.4-1.1,2.5-2.5,2.5h-21
	c-1.4,0-2.5-1.1-2.5-2.5V90.5H51.6c-1.4,0-2.5-1.1-2.5-2.5V67.7c0-1.4,1.1-2.5,2.5-2.5h16.1v-14c0-18.5,11.6-30.4,29.7-30.4l16,0
	c1.4,0,2.5,1.1,2.5,2.5V42.1z"/>
<title>soundcloud</title>
</svg>
