<svg xmlns="http://www.w3.org/2000/svg" viewBox="0 0 242.99 213.59"><defs><style>.cls-1{fill:#fff;}</style></defs><title>instagram</title><g id="Calque_2" data-name="Calque 2"><g id="Calque_1-2" data-name="Calque 1"><circle class="cls-1" cx="82.5" cy="82.5" r="17.7"/><path class="cls-1" d="M105.14,37.75H59.86a22.1,22.1,0,0,0-22.1,22.1v45.28a22.1,22.1,0,0,0,22.1,22.1h45.28a22.1,22.1,0,0,0,22.1-22.1V59.86A22.1,22.1,0,0,0,105.14,37.75ZM82.5,111.47a29,29,0,1,1,29-29A29,29,0,0,1,82.5,111.47Zm29-50.79a6.94,6.94,0,1,1,6.94-6.94A6.94,6.94,0,0,1,111.53,60.68Z"/><path class="cls-1" d="M165,0H0V165H165l78,48.6ZM138.51,105.14a33.41,33.41,0,0,1-33.37,33.37H59.86a33.41,33.41,0,0,1-33.37-33.37V59.86A33.41,33.41,0,0,1,59.86,26.48h45.28a33.41,33.41,0,0,1,33.37,33.37Z"/></g></g></svg>