<svg xmlns="http://www.w3.org/2000/svg" viewBox="0 0 242.99 213.59"><defs><style>.cls-1{fill:#fff;}</style></defs><title>soundcloud</title><g id="Calque_2" data-name="Calque 2"><g id="Calque_1-2" data-name="Calque 1"><path class="cls-1" d="M165,0H0V165H165l78,48.6ZM20.27,107.46a14.83,14.83,0,0,1,0-22.82ZM31.6,111H30.14a15.69,15.69,0,0,1-4.21-.58V81.64a15.55,15.55,0,0,1,4.2-.58c.5,0,1,0,1.47.07Zm11.33,0H37.27V82.82c.41.21.8.44,1.18.69A23.26,23.26,0,0,1,42.94,73.3Zm11.34,0H48.61V68a24.16,24.16,0,0,1,5.67-2.79Zm11.34,0H59.94V64c.69-.06,1.39-.09,2.1-.09a24.47,24.47,0,0,1,3.58.26Zm11.34,0h-8.5V64.81a24.09,24.09,0,0,1,6,2.54,28.5,28.5,0,0,1,2.54-3.41Zm56.69-.07V111H79.78V61.1a29,29,0,0,1,47.85,18.49A15.45,15.45,0,0,1,134,78.21c9.22,0,16.08,7.34,16.08,16.41C150.08,103.21,145,110.24,133.63,111Z"/></g></g></svg>