<svg xmlns="http://www.w3.org/2000/svg" viewBox="0 0 242.99 213.59"><defs><style>.cls-1{fill:#fff;}</style></defs><title>twitter</title><g id="Calque_2" data-name="Calque 2"><g id="Calque_1-2" data-name="Calque 1"><path class="cls-1" d="M165,0H0V165H165l78,48.6ZM129.71,84.77c-10.11,41-78,58.38-109.23,15.82a32.89,32.89,0,0,0,46-1.23C58.74,100.5,53.1,92.9,62.62,88.8c-8.56.93-13.32-3.62-15.27-7.48,2-2.1,4.22-3.07,8.5-3.36C46.48,75.74,43,71.17,42,65.61a26,26,0,0,1,7.63-.92C41.38,60.4,38.54,53.95,39,49.1a244.37,244.37,0,0,1,31.82,14c2.79,1.48,5.89,4.16,9.39,7.55,4.46-11.79,10-23.94,19.41-30a6.69,6.69,0,0,1-1.86,3.68,18.42,18.42,0,0,1,9.69-4.59c-.41,2.65-4.23,4.15-6.54,5,1.75-.54,11-4.69,12.05-2.33,1.2,2.68-6.41,3.92-7.7,4.39-1,.32-1.93.68-2.88,1.06,11.78-1.17,23,8.54,26.3,20.59.23.87.47,1.83.68,2.84,4.31,1.6,12.11-.08,14.62-1.62-1.82,4.3-6.54,7.46-13.51,8a30.17,30.17,0,0,0,14.05,1.42C141.75,82.15,137.29,84.84,129.71,84.77Z"/></g></g></svg>